<?xml version="1.0" encoding="iso-8859-1"?>
<!-- Generator: Adobe Illustrator 19.0.0, SVG Export Plug-In . SVG Version: 6.00 Build 0)  -->
<svg version="1.1" id="Capa_1" xmlns="http://www.w3.org/2000/svg" xmlns:xlink="http://www.w3.org/1999/xlink" x="0px" y="0px"
	 viewBox="0 0 512 512" style="enable-background:new 0 0 512 512;" xml:space="preserve">
<g>
	<g>
		<path d="M225.247,496.792v-98.224c12.662-15.34,20.277-34.992,20.277-56.39V88.713C245.524,39.796,205.728,0,156.811,0h-31.43
			C76.465,0,36.669,39.796,36.669,88.713v252.433c0,21.23,7.539,41.583,21.291,57.648v97.998H35.148V512h53.228h136.871h22.812
			v-15.208H225.247z M88.376,496.792H73.168V392.956l-1.997-2.18c-12.441-13.582-19.294-31.207-19.294-49.631V88.713
			c0-32.327,20.986-59.827,50.042-69.642c-20.585,16.259-33.82,41.433-33.82,69.642v253.465c0,21.398,7.615,41.05,20.277,56.39
			V496.792z M210.039,496.792H103.584v-83.67c0.372,0.279,0.754,0.54,1.13,0.813c0.363,0.264,0.726,0.527,1.092,0.786
			c0.394,0.278,0.79,0.554,1.188,0.824c0.728,0.496,1.463,0.982,2.206,1.457c0.226,0.144,0.453,0.284,0.68,0.425
			c0.858,0.536,1.723,1.063,2.599,1.569c0.008,0.004,0.015,0.009,0.023,0.013c11.081,6.415,23.67,10.501,37.094,11.585
			c0.001,0,0.001,0,0.002,0c1.109,0.09,2.225,0.157,3.346,0.205c0.193,0.008,0.385,0.015,0.578,0.022
			c1.092,0.04,2.187,0.067,3.289,0.067c1.102,0,2.197-0.027,3.289-0.067c0.193-0.007,0.385-0.013,0.578-0.022
			c1.12-0.049,2.237-0.116,3.346-0.205c0.001,0,0.001,0,0.002,0c13.424-1.086,26.013-5.171,37.094-11.585
			c0.008-0.004,0.015-0.009,0.023-0.013c0.877-0.508,1.742-1.033,2.599-1.569c0.227-0.142,0.454-0.282,0.68-0.425
			c0.743-0.474,1.478-0.961,2.206-1.457c0.398-0.271,0.794-0.547,1.188-0.824c0.367-0.259,0.73-0.522,1.092-0.786
			c0.376-0.273,0.758-0.534,1.13-0.813V496.792z M211.321,391.434c-0.167,0.185-0.34,0.363-0.508,0.545
			c-0.668,0.724-1.341,1.441-2.038,2.137c-0.033,0.033-0.068,0.065-0.101,0.097c-2.272,2.265-4.699,4.373-7.25,6.327
			c-0.247,0.19-0.488,0.388-0.737,0.574c-0.525,0.392-1.068,0.762-1.604,1.142c-0.506,0.356-1.009,0.718-1.523,1.061
			c-0.429,0.287-0.868,0.558-1.303,0.835c-0.651,0.415-1.304,0.828-1.967,1.222c-0.351,0.209-0.707,0.408-1.061,0.61
			c-0.776,0.443-1.555,0.877-2.346,1.292c-0.277,0.145-0.556,0.286-0.834,0.428c-0.891,0.452-1.788,0.89-2.697,1.305
			c-0.206,0.094-0.412,0.188-0.617,0.28c-0.997,0.445-2.002,0.869-3.017,1.269c-0.142,0.056-0.283,0.113-0.425,0.167
			c-1.087,0.421-2.184,0.816-3.29,1.184c-0.089,0.029-0.178,0.061-0.268,0.091c-1.156,0.38-2.323,0.732-3.497,1.054
			c-0.056,0.015-0.111,0.032-0.166,0.048c-1.193,0.324-2.396,0.618-3.605,0.883c-0.051,0.011-0.101,0.024-0.152,0.035
			c-1.193,0.259-2.396,0.484-3.604,0.682c-0.075,0.012-0.149,0.028-0.225,0.041c-1.16,0.188-2.328,0.34-3.499,0.471
			c-0.127,0.014-0.251,0.034-0.379,0.049c-1.112,0.119-2.229,0.203-3.35,0.271c-0.185,0.011-0.367,0.032-0.552,0.043
			c-1.293,0.069-2.59,0.104-3.892,0.104s-2.6-0.035-3.892-0.104c-0.186-0.01-0.367-0.031-0.552-0.043
			c-1.12-0.068-2.239-0.151-3.35-0.271c-0.127-0.013-0.251-0.034-0.379-0.049c-1.172-0.132-2.339-0.284-3.499-0.471
			c-0.075-0.012-0.149-0.028-0.225-0.041c-1.209-0.199-2.411-0.424-3.604-0.682c-0.052-0.011-0.101-0.024-0.152-0.035
			c-1.211-0.265-2.413-0.558-3.605-0.883c-0.056-0.015-0.111-0.032-0.166-0.048c-1.175-0.322-2.341-0.674-3.497-1.054
			c-0.089-0.029-0.178-0.061-0.268-0.091c-1.106-0.369-2.203-0.763-3.29-1.184c-0.142-0.055-0.283-0.112-0.425-0.167
			c-1.015-0.4-2.021-0.824-3.017-1.269c-0.207-0.092-0.413-0.186-0.617-0.28c-0.908-0.416-1.806-0.853-2.697-1.305
			c-0.279-0.142-0.558-0.283-0.834-0.428c-0.791-0.415-1.57-0.849-2.346-1.292c-0.354-0.203-0.711-0.403-1.06-0.61
			c-0.663-0.393-1.316-0.807-1.967-1.222c-0.435-0.278-0.874-0.549-1.303-0.835c-0.514-0.343-1.017-0.705-1.523-1.061
			c-0.536-0.378-1.078-0.749-1.604-1.142c-0.249-0.186-0.49-0.385-0.737-0.574c-2.551-1.955-4.978-4.063-7.25-6.327
			c-0.033-0.033-0.068-0.065-0.101-0.097c-0.696-0.697-1.37-1.413-2.038-2.137c-0.168-0.182-0.341-0.361-0.508-0.545
			c-11.798-13.044-18.996-30.325-18.996-49.255V88.713c0-40.531,32.974-73.505,73.505-73.505c40.531,0,73.501,32.974,73.501,73.505
			v253.465C230.316,361.11,223.119,378.389,211.321,391.434z"/>
	</g>
</g>
<g>
	<g>
		<rect x="95.983" y="294.02" width="121.663" height="15.208"/>
	</g>
</g>
<g>
	<g>
		<path d="M448.972,243.327c-15.373,0-27.881,12.507-27.881,27.881v43.089h-83.644c-20.965,0-38.02,17.055-38.02,38.02v68.436
			h65.901v76.04h-38.02V512h38.02h45.624h38.02v-15.208h-38.02v-47.983l36.65,11.155l4.428-14.549l-41.079-12.502v-12.16h65.901
			v-91.248v-15.208v-70.97H448.972z M395.744,496.792h-15.208v-76.04h15.208V496.792z M461.645,405.545h-50.693h-45.624h-50.693
			v-53.228c0-12.579,10.234-22.812,22.812-22.812h83.644h40.555V405.545z M461.645,314.297h-25.347v-43.089
			c0-6.989,5.685-12.673,12.673-12.673h12.673V314.297z"/>
	</g>
</g>
<g>
	<g>
		<rect x="121.329" y="456.238" width="70.97" height="15.208"/>
	</g>
</g>
<g>
	<g>
		
			<rect x="141.362" y="147.5" transform="matrix(0.7071 -0.7071 0.7071 0.7071 -66.0439 150.7639)" width="15.208" height="15.208"/>
	</g>
</g>
<g>
	<g>
		
			<rect x="184.371" y="104.482" transform="matrix(0.7071 -0.7071 0.7071 0.7071 -23.0284 168.5764)" width="15.208" height="15.208"/>
	</g>
</g>
<g>
	<g>
		
			<rect x="119.88" y="169.007" transform="matrix(0.7071 -0.7071 0.7071 0.7071 -87.5439 141.8728)" width="15.208" height="15.208"/>
	</g>
</g>
<g>
	<g>
		
			<rect x="162.884" y="125.997" transform="matrix(0.7071 -0.7071 0.7071 0.7071 -44.5353 159.684)" width="15.208" height="15.208"/>
	</g>
</g>
<g>
	<g>
		
			<rect x="105.531" y="133.165" transform="matrix(0.7071 -0.7071 0.7071 0.7071 -66.4022 121.2291)" width="15.208" height="15.208"/>
	</g>
</g>
<g>
	<g>
		
			<rect x="148.533" y="90.152" transform="matrix(0.7071 -0.7071 0.7071 0.7071 -23.3921 139.0375)" width="15.208" height="15.208"/>
	</g>
</g>
<g>
	<g>
		
			<rect x="127.044" y="111.656" transform="matrix(0.7071 -0.7071 0.7071 0.7071 -44.8916 130.1405)" width="15.208" height="15.207"/>
	</g>
</g>
<g>
</g>
<g>
</g>
<g>
</g>
<g>
</g>
<g>
</g>
<g>
</g>
<g>
</g>
<g>
</g>
<g>
</g>
<g>
</g>
<g>
</g>
<g>
</g>
<g>
</g>
<g>
</g>
<g>
</g>
</svg>
