<?xml version="1.0" encoding="iso-8859-1"?>
<!-- Generator: Adobe Illustrator 19.0.0, SVG Export Plug-In . SVG Version: 6.00 Build 0)  -->
<svg version="1.1" id="Capa_1" xmlns="http://www.w3.org/2000/svg" xmlns:xlink="http://www.w3.org/1999/xlink" x="0px" y="0px"
	 viewBox="0 0 512.001 512.001" style="enable-background:new 0 0 512.001 512.001;" xml:space="preserve">
<g>
	<g>
		<path d="M237.684,367.136l-61.55-345.813C173.933,8.967,163.229,0,150.68,0c-12.55,0-23.255,8.968-25.453,21.324l-61.55,345.811
			c-8.661,48.655,7.43,98.162,43.041,132.429L119.642,512v-93.323l-3.486-2.256c-7.928-5.13-11.991-14.454-10.347-23.778
			l44.872-259.527l44.877,259.551c1.638,9.3-2.424,18.624-10.352,23.754l-3.486,2.256v93.324l12.924-12.437
			C230.254,465.297,246.345,415.791,237.684,367.136z M196.983,474.185v-47.486c10.771-8.796,16.061-22.753,13.611-36.656
			l-52.471-303.47h-14.887L90.772,390.018c-2.456,13.926,2.835,27.884,13.606,36.681v47.486
			C81.609,444.81,72.08,407.031,78.705,369.81l61.55-345.812c0.901-5.061,5.285-8.733,10.425-8.733c5.14,0,9.524,3.673,10.426,8.734
			l61.55,345.811C229.28,407.031,219.752,444.81,196.983,474.185z"/>
	</g>
</g>
<g>
	<g>
		<path d="M407.375,0c-23.848,0-43.25,19.401-43.25,43.25v141.753c0,16.856,0.602,33.932,1.791,50.755l19.387,274.314l44.627-22.313
			l18.623-250.069c1.376-18.08,2.073-36.448,2.073-54.593V43.25C450.625,19.401,431.222,0,407.375,0z M435.36,183.096
			c0,17.761-0.683,35.74-2.03,53.447L415.35,477.98l-16.432,8.216l-17.775-251.516c-1.164-16.466-1.753-33.18-1.753-49.679V43.25
			c0-15.432,12.555-27.985,27.985-27.985S435.36,27.818,435.36,43.25V183.096z"/>
	</g>
</g>
<g>
	<g>
		<rect x="399.739" y="139.925" width="15.265" height="15.265"/>
	</g>
</g>
<g>
	<g>
		<rect x="399.739" y="78.867" width="15.265" height="15.265"/>
	</g>
</g>
<g>
	<g>
		<rect x="399.739" y="109.396" width="15.265" height="15.265"/>
	</g>
</g>
<g>
</g>
<g>
</g>
<g>
</g>
<g>
</g>
<g>
</g>
<g>
</g>
<g>
</g>
<g>
</g>
<g>
</g>
<g>
</g>
<g>
</g>
<g>
</g>
<g>
</g>
<g>
</g>
<g>
</g>
</svg>
