<?xml version="1.0" encoding="iso-8859-1"?>
<!-- Generator: Adobe Illustrator 19.0.0, SVG Export Plug-In . SVG Version: 6.00 Build 0)  -->
<svg version="1.1" id="Capa_1" xmlns="http://www.w3.org/2000/svg" xmlns:xlink="http://www.w3.org/1999/xlink" x="0px" y="0px"
	 viewBox="0 0 512 512" style="enable-background:new 0 0 512 512;" xml:space="preserve">
<g>
	<g>
		<path d="M256.002,0c-54.132,0-98.171,44.039-98.171,98.171v30.71h0.242l-0.07,20.71l15.103,0.035l0.063-27.877
			c0.035-0.369,0.082-0.733,0.125-1.1c0.043-0.365,0.081-0.732,0.132-1.094c0.056-0.398,0.126-0.79,0.192-1.185
			c0.059-0.358,0.114-0.719,0.18-1.074c0.075-0.394,0.162-0.781,0.247-1.171c0.075-0.349,0.144-0.702,0.227-1.047
			c0.093-0.389,0.199-0.772,0.301-1.157c0.09-0.34,0.174-0.683,0.272-1.02c0.111-0.384,0.235-0.76,0.354-1.14
			c0.105-0.33,0.203-0.665,0.314-0.992c0.128-0.378,0.27-0.748,0.407-1.121c0.118-0.321,0.231-0.646,0.355-0.965
			c0.146-0.371,0.304-0.734,0.458-1.101c0.131-0.311,0.257-0.626,0.395-0.933c0.163-0.365,0.339-0.722,0.51-1.081
			c0.144-0.301,0.282-0.605,0.431-0.902c0.18-0.358,0.374-0.708,0.562-1.06c0.155-0.29,0.304-0.583,0.465-0.868
			c0.197-0.35,0.407-0.692,0.612-1.036c0.167-0.279,0.328-0.563,0.5-0.838c0.213-0.342,0.439-0.675,0.661-1.011
			c0.177-0.268,0.348-0.54,0.531-0.803c0.231-0.334,0.473-0.66,0.713-0.987c0.186-0.256,0.368-0.516,0.559-0.767
			c0.247-0.325,0.505-0.639,0.761-0.958c0.195-0.244,0.387-0.492,0.587-0.733c0.261-0.312,0.534-0.615,0.802-0.92
			c0.206-0.235,0.409-0.475,0.619-0.706c0.274-0.299,0.56-0.588,0.842-0.881c0.218-0.226,0.429-0.456,0.65-0.677
			c0.29-0.289,0.59-0.567,0.888-0.848c0.224-0.212,0.444-0.431,0.673-0.639c0.305-0.278,0.62-0.544,0.932-0.813
			c0.232-0.2,0.459-0.407,0.695-0.602c0.317-0.264,0.645-0.516,0.97-0.77c0.241-0.189,0.477-0.386,0.722-0.57
			c0.329-0.249,0.669-0.485,1.004-0.726c0.25-0.179,0.494-0.363,0.748-0.538c0.343-0.236,0.696-0.459,1.046-0.686
			c0.256-0.166,0.505-0.337,0.764-0.498c0.357-0.223,0.724-0.431,1.088-0.644c0.26-0.152,0.516-0.311,0.778-0.458
			c0.367-0.206,0.744-0.398,1.118-0.594c0.268-0.141,0.533-0.289,0.804-0.425c0.371-0.186,0.749-0.357,1.125-0.534
			c0.283-0.133,0.562-0.273,0.848-0.4c0.384-0.17,0.774-0.326,1.163-0.487c0.285-0.118,0.567-0.244,0.855-0.356
			c0.395-0.154,0.796-0.293,1.196-0.437c0.291-0.105,0.578-0.218,0.871-0.317c0.407-0.138,0.821-0.26,1.232-0.387
			c0.292-0.091,0.581-0.189,0.876-0.274c0.42-0.121,0.848-0.226,1.273-0.335c0.293-0.076,0.583-0.16,0.879-0.231
			c0.424-0.101,0.855-0.185,1.284-0.275c0.302-0.063,0.601-0.135,0.905-0.193c0.426-0.081,0.859-0.144,1.29-0.213
			c0.312-0.05,0.622-0.11,0.936-0.154c0.453-0.064,0.912-0.11,1.37-0.161c0.296-0.033,0.589-0.076,0.887-0.104
			c0.535-0.05,1.075-0.082,1.616-0.114c0.225-0.014,0.447-0.036,0.673-0.047c0.768-0.036,1.541-0.054,2.318-0.054
			c11.09,0,21.898,3.882,30.433,10.93l4.808,3.97l4.808-3.97c8.535-7.048,19.343-10.93,30.433-10.93
			c16.113,0,30.679,8.168,39.445,20.638c4.498,6.557,7.409,14.336,8.175,22.833l0.207,2.299v25.339h15.103v-20.765v-7.552V98.171
			C354.173,44.039,310.134,0,256.002,0z M333.902,79.999c-11.693-10.682-26.844-16.565-42.661-16.565
			c-11.795,0-23.348,3.339-33.277,9.518c-0.661,0.412-1.317,0.837-1.963,1.274c-0.647-0.437-1.302-0.862-1.963-1.274
			c-9.93-6.179-21.483-9.518-33.278-9.518c-15.81,0-30.925,5.888-42.559,16.579c-0.716,0.659-1.416,1.332-2.097,2.019
			c-0.406,0.409-0.792,0.832-1.185,1.25c-0.265,0.281-0.539,0.555-0.797,0.84c6.697-39.135,40.865-69.018,81.88-69.018
			c40.949,0,75.07,29.79,81.842,68.833C336.591,82.574,335.28,81.257,333.902,79.999z"/>
	</g>
</g>
<g>
	<g>
		<path d="M447.175,357.38l-125.224-39.216v-20.853c3.279-1.704,6.505-3.524,9.66-5.487c14.127-8.789,22.56-23.97,22.56-40.608
			v-79.04h-25.013l-16.279,61.785l-0.03,0.121c-1.388,5.643-6.413,9.583-12.223,9.583h-89.313c-5.788,0-10.808-3.922-12.211-9.536
			l-16.579-61.953h-24.695v79.04c0,16.638,8.434,31.819,22.56,40.608c3.155,1.962,6.381,3.783,9.66,5.487v20.853L64.887,357.361
			c-20.292,6.163-33.925,24.554-33.925,45.761V512h15.103V403.122c0-14.51,9.329-27.093,23.273-31.329l135.814-42.531v-25.188
			c16.168,6.148,33.375,9.356,50.848,9.356c17.472,0,34.68-3.207,50.848-9.356v25.188l135.876,42.55
			c13.883,4.217,23.212,16.801,23.212,31.311V512h15.103V403.122C481.038,381.915,467.405,363.524,447.175,357.38z M188.368,279.001
			c-9.666-6.014-15.435-16.4-15.435-27.784v-56.461l11.535,43.101c3.108,12.317,14.138,20.913,26.847,20.913h89.313
			c12.757,0,23.799-8.637,26.872-21.013l11.569-43.909v57.369c0,11.384-5.769,21.77-15.436,27.784
			C281.915,304.96,230.085,304.96,188.368,279.001z"/>
	</g>
</g>
<g>
</g>
<g>
</g>
<g>
</g>
<g>
</g>
<g>
</g>
<g>
</g>
<g>
</g>
<g>
</g>
<g>
</g>
<g>
</g>
<g>
</g>
<g>
</g>
<g>
</g>
<g>
</g>
<g>
</g>
</svg>
