<?xml version="1.0" encoding="iso-8859-1"?>
<!-- Generator: Adobe Illustrator 19.0.0, SVG Export Plug-In . SVG Version: 6.00 Build 0)  -->
<svg version="1.1" id="Capa_1" xmlns="http://www.w3.org/2000/svg" xmlns:xlink="http://www.w3.org/1999/xlink" x="0px" y="0px"
	 viewBox="0 0 512 512" style="enable-background:new 0 0 512 512;" xml:space="preserve">
<g>
	<g>
		<path d="M354.852,354.852v-83.644c0-41.958-26.279-77.889-63.241-92.212c25.471-13.011,42.963-39.496,42.963-70.006V65.901V0
			H177.426v65.901v43.089c0,30.51,17.492,56.995,42.963,70.006c-36.961,14.323-63.241,50.254-63.241,92.212v83.644h-30.416V473.98
			c0,20.965,17.055,38.02,38.02,38.02c20.965,0,38.02-17.055,38.02-38.02V354.852h-30.416v-83.644
			c0-46.122,37.523-83.644,83.644-83.644s83.644,37.522,83.644,83.644v83.644h-30.416V473.98c0,20.965,17.055,38.02,38.02,38.02
			c20.965,0,38.02-17.055,38.02-38.02V354.852H354.852z M187.564,370.059V473.98c0,12.579-10.234,22.812-22.812,22.812
			c-12.578,0-22.812-10.233-22.812-22.812V370.059H187.564z M192.634,15.208h126.733v35.485H192.634V15.208z M192.634,108.99V65.901
			h126.733v43.089c0,34.94-28.426,63.366-63.366,63.366S192.634,143.93,192.634,108.99z M370.059,473.98
			c0,12.579-10.234,22.812-22.812,22.812c-12.578,0-22.812-10.233-22.812-22.812V370.059h45.624V473.98z"/>
	</g>
</g>
<g>
	<g>
		<rect x="157.148" y="421.259" width="15.208" height="15.208"/>
	</g>
</g>
<g>
	<g>
		<rect x="157.148" y="390.844" width="15.208" height="15.208"/>
	</g>
</g>
<g>
	<g>
		<rect x="157.148" y="451.675" width="15.208" height="15.208"/>
	</g>
</g>
<g>
	<g>
		<rect x="339.644" y="421.259" width="15.208" height="15.208"/>
	</g>
</g>
<g>
	<g>
		<rect x="339.644" y="390.844" width="15.208" height="15.208"/>
	</g>
</g>
<g>
	<g>
		<rect x="339.644" y="451.675" width="15.208" height="15.208"/>
	</g>
</g>
<g>
</g>
<g>
</g>
<g>
</g>
<g>
</g>
<g>
</g>
<g>
</g>
<g>
</g>
<g>
</g>
<g>
</g>
<g>
</g>
<g>
</g>
<g>
</g>
<g>
</g>
<g>
</g>
<g>
</g>
</svg>
