<?xml version="1.0" encoding="iso-8859-1"?>
<!-- Generator: Adobe Illustrator 19.0.0, SVG Export Plug-In . SVG Version: 6.00 Build 0)  -->
<svg version="1.1" id="Capa_1" xmlns="http://www.w3.org/2000/svg" xmlns:xlink="http://www.w3.org/1999/xlink" x="0px" y="0px"
	 viewBox="0 0 512 512" style="enable-background:new 0 0 512 512;" xml:space="preserve">
<g>
	<g>
		<path d="M255.999,0C156.537,0,75.619,80.918,75.619,180.381v205.001h15.074V180.381c0-91.151,74.156-165.307,165.307-165.307
			S421.307,89.23,421.307,180.381v205.001h15.074V180.381C436.38,80.918,355.462,0,255.999,0z"/>
	</g>
</g>
<g>
	<g>
		<path d="M158.019,132.607v125.152h0.002c0,33.318,16.721,62.799,42.206,80.508v36.219l-134.965,39.24
			c-20.252,6.151-33.859,24.506-33.859,45.671V512h15.074v-52.604c0-14.482,9.309-27.04,23.08-31.222l145.745-42.373v-38.9
			c3.745,1.712,7.593,3.175,11.516,4.398c0.036,0.011,0.071,0.023,0.108,0.034c0.62,0.193,1.243,0.377,1.867,0.557
			c0.212,0.061,0.424,0.124,0.637,0.184c0.515,0.145,1.03,0.283,1.548,0.419c0.327,0.086,0.653,0.172,0.982,0.255
			c0.438,0.111,0.877,0.218,1.317,0.323c0.412,0.099,0.824,0.194,1.238,0.286c0.381,0.085,0.762,0.169,1.144,0.249
			c0.473,0.1,0.949,0.196,1.424,0.289c0.339,0.066,0.677,0.133,1.016,0.195c0.521,0.096,1.043,0.187,1.566,0.275
			c0.306,0.052,0.613,0.105,0.919,0.153c0.556,0.088,1.113,0.169,1.672,0.248c0.282,0.04,0.564,0.081,0.847,0.119
			c0.581,0.077,1.165,0.146,1.75,0.212c0.267,0.03,0.534,0.063,0.801,0.091c0.596,0.063,1.194,0.117,1.792,0.168
			c0.26,0.022,0.52,0.049,0.78,0.069c0.607,0.047,1.217,0.085,1.827,0.123c0.253,0.015,0.505,0.035,0.759,0.048
			c0.636,0.033,1.275,0.056,1.915,0.077c0.226,0.008,0.452,0.02,0.678,0.026c0.862,0.022,1.727,0.035,2.596,0.035
			c0.868,0,1.732-0.012,2.596-0.035c0.226-0.006,0.452-0.018,0.678-0.026c0.639-0.021,1.279-0.043,1.915-0.077
			c0.253-0.013,0.505-0.033,0.759-0.048c0.61-0.036,1.22-0.074,1.827-0.123c0.26-0.021,0.521-0.047,0.78-0.069
			c0.599-0.052,1.197-0.106,1.792-0.168c0.267-0.028,0.534-0.061,0.801-0.091c0.585-0.066,1.168-0.135,1.75-0.212
			c0.282-0.037,0.565-0.079,0.847-0.119c0.559-0.079,1.116-0.16,1.672-0.248c0.307-0.049,0.613-0.102,0.919-0.153
			c0.524-0.088,1.045-0.179,1.566-0.275c0.34-0.063,0.677-0.129,1.016-0.195c0.476-0.093,0.951-0.189,1.424-0.289
			c0.382-0.08,0.763-0.164,1.144-0.249c0.414-0.093,0.826-0.189,1.238-0.286c0.44-0.104,0.879-0.211,1.317-0.323
			c0.328-0.083,0.655-0.169,0.982-0.255c0.517-0.136,1.033-0.274,1.548-0.419c0.213-0.06,0.425-0.123,0.637-0.184
			c0.624-0.18,1.247-0.365,1.867-0.557c0.036-0.011,0.071-0.023,0.107-0.034c3.923-1.223,7.771-2.686,11.516-4.398v33.242h15.074
			v-41.876c25.485-17.709,42.206-47.19,42.206-80.508v-38.06L158.019,132.607z M338.904,257.759
			c0,37.067-24.454,68.526-58.076,79.102c-0.158,0.049-0.317,0.097-0.474,0.146c-1.117,0.345-2.245,0.665-3.381,0.963
			c-0.129,0.033-0.256,0.071-0.386,0.104c-1.203,0.309-2.418,0.587-3.642,0.842c-0.271,0.056-0.545,0.106-0.816,0.16
			c-0.964,0.191-1.933,0.364-2.908,0.521c-0.33,0.053-0.659,0.109-0.989,0.158c-1.199,0.178-2.405,0.336-3.62,0.461
			c-0.215,0.022-0.43,0.036-0.645,0.056c-1.044,0.1-2.094,0.18-3.149,0.24c-0.346,0.02-0.692,0.039-1.039,0.054
			c-1.254,0.056-2.512,0.095-3.779,0.095c-1.267,0-2.525-0.039-3.779-0.095c-0.347-0.016-0.692-0.034-1.039-0.054
			c-1.055-0.061-2.105-0.141-3.149-0.24c-0.215-0.021-0.431-0.034-0.645-0.056c-1.215-0.126-2.42-0.283-3.619-0.461
			c-0.331-0.049-0.66-0.104-0.99-0.158c-0.975-0.157-1.944-0.33-2.908-0.521c-0.272-0.053-0.545-0.104-0.816-0.16
			c-1.224-0.255-2.438-0.534-3.642-0.842c-0.129-0.033-0.256-0.07-0.386-0.104c-1.137-0.297-2.264-0.618-3.382-0.963
			c-0.159-0.048-0.317-0.096-0.474-0.146c-33.621-10.577-58.076-42.036-58.076-79.102V155.802l165.81,73.693V257.759z"/>
	</g>
</g>
<g>
	<g>
		
			<rect x="248.465" y="19.434" transform="matrix(0.4061 -0.9138 0.9138 0.4061 43.8355 304.2589)" width="15.073" height="197.941"/>
	</g>
</g>
<g>
	<g>
		
			<rect x="248.477" y="52.439" transform="matrix(0.4061 -0.9138 0.9138 0.4061 13.6815 323.8714)" width="15.073" height="197.941"/>
	</g>
</g>
<g>
	<g>
		<rect x="384.628" y="194.449" width="15.074" height="287.403"/>
	</g>
</g>
<g>
	<g>
		<rect x="384.628" y="496.926" width="15.074" height="15.074"/>
	</g>
</g>
<g>
	<g>
		<rect x="107.273" y="243.69" width="15.074" height="124.608"/>
	</g>
</g>
<g>
	<g>
		<rect x="138.928" y="316.043" width="15.074" height="37.182"/>
	</g>
</g>
<g>
	<g>
		<rect x="334.382" y="358.249" width="15.074" height="123.604"/>
	</g>
</g>
<g>
	<g>
		<rect x="334.382" y="496.926" width="15.074" height="15.074"/>
	</g>
</g>
<g>
	<g>
		<path d="M446.651,413.699l-22.235-6.466l-4.209,14.475l22.149,6.438c13.857,4.209,23.166,16.768,23.166,31.25V512h15.074v-52.604
			C480.596,438.231,466.989,419.876,446.651,413.699z"/>
	</g>
</g>
<g>
</g>
<g>
</g>
<g>
</g>
<g>
</g>
<g>
</g>
<g>
</g>
<g>
</g>
<g>
</g>
<g>
</g>
<g>
</g>
<g>
</g>
<g>
</g>
<g>
</g>
<g>
</g>
<g>
</g>
</svg>
