<?xml version="1.0" encoding="iso-8859-1"?>
<!-- Generator: Adobe Illustrator 19.0.0, SVG Export Plug-In . SVG Version: 6.00 Build 0)  -->
<svg version="1.1" id="Capa_1" xmlns="http://www.w3.org/2000/svg" xmlns:xlink="http://www.w3.org/1999/xlink" x="0px" y="0px"
	 viewBox="0 0 512 512" style="enable-background:new 0 0 512 512;" xml:space="preserve">
<g>
	<g>
		
			<rect x="275.022" y="233.878" transform="matrix(0.3939 -0.9191 0.9191 0.3939 -71.1891 419.6296)" width="15.15" height="59.833"/>
	</g>
</g>
<g>
	<g>
		<path d="M500.412,258.594l-10.714-10.713l-21.07,21.07l-24.998-24.998l21.07-21.07l-10.714-10.713l-21.07,21.07l-10.713-10.713
			l-33.926,33.925c-16.724,16.725-18.483,42.821-5.303,61.532L213.458,490.574c-3.434,3.434-7.999,5.25-12.856,5.167
			c-4.855-0.103-9.338-2.129-12.625-5.705c-6.488-7.06-6.205-17.847,0.646-24.557l40.824-43.281
			c6.01-5.943,9.341-13.865,9.386-22.325c0.044-8.512-3.246-16.515-9.265-22.534c-12.215-12.214-31.601-12.472-44.135-0.588
			L65.587,490.381c-4.583,4.448-10.629,6.741-17.003,6.445c-6.381-0.293-12.184-3.125-16.341-7.975
			c-7.889-9.204-7.228-22.999,1.505-31.406l42.554-42.468l3.207,3.332c5.228,5.431,12.255,8.167,19.295,8.167
			c6.597,0,13.205-2.405,18.346-7.249L237.8,305.541l27.698-23.532l-9.811-11.547l-22.528,19.14l-32.441-32.441l72.958-69.876
			l-49.752-3.755v-15.701h74.591L432.638,33.706c0.317,0.62,0.612,1.248,0.875,1.887c0.066,0.162,0.119,0.326,0.181,0.489
			c0.203,0.527,0.392,1.06,0.558,1.597c0.074,0.238,0.137,0.478,0.204,0.718c0.132,0.481,0.25,0.964,0.354,1.451
			c0.052,0.245,0.104,0.491,0.148,0.737c0.096,0.532,0.17,1.067,0.231,1.603c0.021,0.19,0.052,0.38,0.07,0.57
			c0.066,0.725,0.102,1.453,0.104,2.181c0,0.129-0.011,0.259-0.012,0.388c-0.008,0.598-0.034,1.196-0.085,1.793
			c-0.02,0.238-0.052,0.476-0.078,0.713c-0.057,0.497-0.127,0.992-0.214,1.485c-0.043,0.248-0.089,0.497-0.14,0.744
			c-0.106,0.513-0.233,1.023-0.373,1.53c-0.056,0.204-0.104,0.409-0.166,0.612c-0.212,0.702-0.451,1.398-0.727,2.083
			c-0.031,0.077-0.07,0.151-0.102,0.227c-0.25,0.604-0.527,1.2-0.827,1.787c-0.11,0.214-0.231,0.423-0.347,0.634
			c-0.247,0.449-0.507,0.894-0.785,1.33c-0.142,0.224-0.288,0.446-0.438,0.667c-0.296,0.434-0.611,0.859-0.938,1.278
			c-0.147,0.19-0.289,0.382-0.443,0.568c-0.49,0.591-1.003,1.169-1.556,1.722L290.997,199.631c-13.98,13.981-13.98,36.729,0,50.71
			l5.357,5.356L487.409,64.643c14.768-14.768,14.768-38.799,0-53.567h-0.001c-14.768-14.769-38.799-14.766-53.567,0l-7.38,7.381
			L292.241,152.677h-68.316v-7.576h-34.342c-16.708,0-30.302,13.594-30.302,30.302s13.594,30.302,30.302,30.302h34.342v-6.983
			l14.743,1.113l-48.666,46.609l-0.006-0.006l-5.151,4.944l-5.788,5.543l0.006,0.006L65.92,365.539
			c-5.163,4.955-8.085,11.626-8.227,18.781c-0.142,7.155,2.513,13.936,7.477,19.092l0.622,0.646l-42.605,42.52
			c-14.46,13.973-15.541,36.858-2.448,52.133c6.806,7.941,16.701,12.77,27.15,13.25c0.576,0.026,1.15,0.039,1.724,0.039
			c9.849,0,19.431-3.862,26.462-10.687l119.782-113.567c6.531-6.192,16.632-6.059,22.998,0.307
			c3.135,3.136,4.851,7.306,4.827,11.742c-0.022,4.435-1.781,8.587-4.949,11.691l-40.824,43.281
			c-12.619,12.475-13.108,32.439-1.087,45.521c6.106,6.645,14.439,10.41,23.462,10.601c9.004,0.172,17.507-3.219,23.937-9.649
			l169.322-172.392c8.47,6.319,18.564,9.486,28.663,9.486c12.286,0,24.572-4.677,33.926-14.03l33.925-33.925l-10.713-10.713
			L500.412,258.594z M440.179,71.807c0.139-0.154,0.272-0.312,0.408-0.467c0.288-0.327,0.574-0.656,0.849-0.99
			c0.155-0.188,0.302-0.378,0.453-0.568c0.246-0.311,0.491-0.622,0.726-0.938c0.151-0.202,0.298-0.406,0.444-0.61
			c0.224-0.313,0.444-0.628,0.659-0.946c0.139-0.207,0.278-0.415,0.413-0.624c0.211-0.327,0.416-0.657,0.617-0.989
			c0.123-0.204,0.247-0.407,0.368-0.613c0.206-0.356,0.404-0.714,0.598-1.074c0.1-0.186,0.205-0.371,0.302-0.558
			c0.23-0.443,0.449-0.891,0.662-1.341c0.05-0.106,0.105-0.21,0.155-0.316c0.262-0.567,0.509-1.137,0.742-1.713
			c0.041-0.103,0.079-0.208,0.119-0.311c0.185-0.468,0.364-0.936,0.53-1.409c0.066-0.187,0.125-0.376,0.189-0.564
			c0.132-0.393,0.262-0.787,0.381-1.183c0.065-0.213,0.123-0.427,0.184-0.64c0.107-0.377,0.21-0.755,0.305-1.134
			c0.056-0.221,0.109-0.442,0.161-0.664c0.089-0.38,0.172-0.762,0.25-1.143c0.044-0.217,0.089-0.435,0.129-0.654
			c0.074-0.399,0.14-0.799,0.202-1.199c0.031-0.201,0.065-0.401,0.093-0.602c0.063-0.45,0.115-0.903,0.163-1.355
			c0.016-0.151,0.036-0.301,0.05-0.452c0.114-1.219,0.172-2.442,0.175-3.666c0-0.151-0.005-0.304-0.007-0.456
			c-0.004-0.455-0.013-0.908-0.032-1.363c-0.009-0.201-0.023-0.402-0.034-0.603c-0.023-0.406-0.051-0.811-0.087-1.217
			c-0.019-0.217-0.042-0.433-0.065-0.651c-0.041-0.392-0.088-0.784-0.14-1.174c-0.029-0.219-0.061-0.438-0.094-0.657
			c-0.06-0.393-0.126-0.785-0.198-1.176c-0.038-0.21-0.076-0.421-0.117-0.631c-0.082-0.413-0.174-0.824-0.27-1.234
			c-0.042-0.184-0.082-0.369-0.127-0.552c-0.123-0.498-0.259-0.994-0.401-1.488c-0.026-0.092-0.049-0.185-0.076-0.277
			c-0.176-0.594-0.367-1.185-0.571-1.772c-0.035-0.101-0.076-0.201-0.111-0.302c-0.17-0.474-0.345-0.946-0.533-1.415
			c-0.075-0.188-0.157-0.373-0.234-0.559c-0.16-0.381-0.321-0.761-0.493-1.136c-0.096-0.21-0.196-0.418-0.296-0.626
			c-0.167-0.349-0.337-0.698-0.515-1.044c-0.111-0.216-0.224-0.43-0.339-0.644c-0.181-0.337-0.368-0.672-0.56-1.005
			c-0.121-0.212-0.243-0.423-0.37-0.633c-0.202-0.336-0.412-0.669-0.624-1c-0.127-0.198-0.251-0.397-0.383-0.593
			c-0.047-0.072-0.091-0.145-0.139-0.216l0.866-0.872c8.86-8.86,23.279-8.861,32.141,0h-0.001c8.861,8.861,8.861,23.279,0,32.14
			L297.382,233.243c-0.039-0.09-0.086-0.177-0.124-0.268c-0.074-0.177-0.139-0.356-0.208-0.533
			c-0.156-0.406-0.299-0.815-0.429-1.228c-0.058-0.182-0.116-0.364-0.168-0.547c-0.144-0.507-0.27-1.019-0.374-1.534
			c-0.015-0.075-0.036-0.148-0.05-0.224c-0.113-0.59-0.195-1.184-0.257-1.779c-0.017-0.169-0.026-0.338-0.039-0.508
			c-0.034-0.44-0.057-0.881-0.064-1.321c-0.003-0.192-0.005-0.384-0.002-0.576c0.006-0.472,0.029-0.943,0.068-1.414
			c0.01-0.131,0.014-0.264,0.027-0.395c0.06-0.596,0.145-1.189,0.256-1.779c0.026-0.141,0.064-0.282,0.093-0.423
			c0.095-0.454,0.204-0.904,0.329-1.352c0.053-0.187,0.108-0.374,0.167-0.559c0.133-0.429,0.283-0.854,0.445-1.275
			c0.06-0.156,0.114-0.311,0.178-0.466c0.231-0.561,0.485-1.115,0.768-1.658c0.047-0.09,0.103-0.177,0.151-0.267
			c0.244-0.453,0.507-0.898,0.788-1.335c0.106-0.165,0.218-0.327,0.329-0.49c0.255-0.373,0.523-0.738,0.805-1.097
			c0.118-0.151,0.232-0.301,0.355-0.448c0.405-0.487,0.828-0.965,1.285-1.422L438.842,73.214
			C439.303,72.753,439.746,72.284,440.179,71.807z M208.774,190.555h-19.191c-8.354,0-15.151-6.797-15.151-15.151
			s6.797-15.151,15.151-15.151h19.191V190.555z M76.411,376.47l113.368-108.821l32.088,32.087L106.758,408.2
			c-4.611,4.345-11.94,4.167-16.335-0.399l-14.338-14.896c-2.153-2.237-3.305-5.18-3.244-8.286
			C72.903,381.515,74.172,378.621,76.411,376.47z M445.416,313.589c-6.2,6.2-14.444,9.615-23.211,9.615
			c-8.767,0-17.013-3.415-23.211-9.615c-6.201-6.201-9.616-14.444-9.616-23.212c0-8.768,3.415-17.012,9.616-23.212l23.211-23.212
			l46.425,46.425L445.416,313.589z"/>
	</g>
</g>
<g>
</g>
<g>
</g>
<g>
</g>
<g>
</g>
<g>
</g>
<g>
</g>
<g>
</g>
<g>
</g>
<g>
</g>
<g>
</g>
<g>
</g>
<g>
</g>
<g>
</g>
<g>
</g>
<g>
</g>
</svg>
