<?xml version="1.0" encoding="iso-8859-1"?>
<!-- Generator: Adobe Illustrator 19.0.0, SVG Export Plug-In . SVG Version: 6.00 Build 0)  -->
<svg version="1.1" id="Capa_1" xmlns="http://www.w3.org/2000/svg" xmlns:xlink="http://www.w3.org/1999/xlink" x="0px" y="0px"
	 viewBox="0 0 512.001 512.001" style="enable-background:new 0 0 512.001 512.001;" xml:space="preserve">
<g>
	<g>
		<path d="M447.212,357.351l-125.247-39.222v-45.9l13.228-9.994c11.897-8.988,18.998-23.256,18.998-38.166V111.689V96.583V50.197
			c0-11.192-6.151-21.385-16.053-26.602c-8.896-4.687-19.388-4.589-28.122,0.065L195.926,1.215
			c-18.856-3.708-38.184,1.164-53.027,13.372s-23.356,30.231-23.356,49.449v47.654h38.387l-0.118,112.378
			c0,14.911,7.103,29.179,18.998,38.166l13.228,9.994v45.9L64.852,357.332c-20.296,6.164-33.932,24.558-33.932,45.769V512h15.106
			V403.102c0-14.513,9.331-27.097,23.278-31.335l135.839-42.539v-45.586l22.021,16.638c8.489,6.414,18.663,9.621,28.836,9.621
			s20.347-3.206,28.837-9.621l22.02-16.638v45.586l135.901,42.558c13.885,4.218,23.216,16.804,23.216,31.317v108.899h15.106v-108.9
			C481.082,381.891,467.446,363.496,447.212,357.351z M318.947,63.854V36.139c3.927-1.477,8.268-1.224,12.15,0.82
			c5.002,2.635,7.988,7.583,7.988,13.238v45.331c-0.069-0.02-0.139-0.039-0.208-0.059c-0.628-0.184-1.25-0.385-1.858-0.611
			c-0.085-0.031-0.167-0.068-0.252-0.1c-0.569-0.218-1.128-0.454-1.678-0.708c-0.098-0.045-0.197-0.088-0.295-0.134
			c-0.578-0.275-1.144-0.572-1.7-0.885c-0.124-0.07-0.247-0.141-0.37-0.212c-0.555-0.324-1.101-0.662-1.63-1.023
			c-0.065-0.044-0.129-0.093-0.194-0.138c-0.494-0.342-0.976-0.703-1.446-1.077c-0.091-0.072-0.182-0.141-0.272-0.214
			c-0.49-0.399-0.965-0.817-1.426-1.248c-0.103-0.096-0.203-0.193-0.304-0.29c-0.462-0.445-0.913-0.901-1.344-1.378
			c-0.044-0.049-0.086-0.101-0.13-0.15c-0.405-0.453-0.793-0.922-1.167-1.402c-0.073-0.094-0.149-0.186-0.222-0.281
			c-0.384-0.505-0.749-1.023-1.098-1.554c-0.075-0.114-0.147-0.229-0.22-0.342c-0.349-0.549-0.686-1.107-0.997-1.681
			c-0.022-0.041-0.042-0.085-0.064-0.127c-0.296-0.553-0.57-1.119-0.829-1.694c-0.05-0.112-0.103-0.222-0.151-0.334
			c-0.256-0.59-0.491-1.191-0.707-1.802c-0.044-0.125-0.086-0.252-0.128-0.378c-0.214-0.633-0.412-1.274-0.579-1.927
			c-0.006-0.024-0.011-0.049-0.017-0.073c-0.162-0.64-0.296-1.29-0.414-1.946c-0.022-0.125-0.046-0.249-0.067-0.375
			c-0.108-0.656-0.191-1.318-0.252-1.989c-0.012-0.131-0.02-0.263-0.03-0.395c-0.053-0.699-0.089-1.402-0.089-2.114V63.854z
			 M157.945,96.582H134.65V64.036c0-14.683,6.504-28.455,17.845-37.782c11.342-9.328,26.109-13.052,40.516-10.217l110.827,21.801
			v25.497l-0.011,0.912c-0.212,17.829-14.89,32.335-32.719,32.335H157.945z M275.731,288.226c-11.618,8.778-27.844,8.778-39.461,0
			l-50.354-38.045c-8.14-6.149-12.999-15.912-12.999-26.105l0.118-112.386h98.072c0.934,0,1.859-0.034,2.78-0.087
			c0.253-0.015,0.501-0.038,0.753-0.057c0.694-0.051,1.385-0.115,2.071-0.194c0.238-0.028,0.474-0.059,0.712-0.091
			c0.763-0.101,1.52-0.221,2.271-0.357c0.125-0.023,0.25-0.043,0.375-0.068c12.408-2.362,23.126-9.529,30.149-19.488
			c0.109,0.175,0.227,0.343,0.337,0.517c0.246,0.385,0.492,0.769,0.749,1.146c0.164,0.24,0.336,0.473,0.506,0.71
			c0.249,0.347,0.499,0.695,0.757,1.035c0.183,0.242,0.373,0.477,0.562,0.714c0.259,0.325,0.519,0.649,0.786,0.966
			c0.199,0.236,0.402,0.467,0.606,0.699c0.271,0.308,0.546,0.612,0.825,0.912c0.211,0.227,0.425,0.45,0.641,0.672
			c0.286,0.294,0.577,0.583,0.871,0.869c0.222,0.214,0.443,0.428,0.67,0.638c0.303,0.282,0.611,0.557,0.922,0.83
			c0.229,0.2,0.456,0.402,0.689,0.597c0.325,0.273,0.657,0.538,0.99,0.802c0.23,0.181,0.456,0.366,0.69,0.542
			c0.355,0.27,0.719,0.53,1.084,0.789c0.221,0.157,0.438,0.318,0.662,0.471c0.414,0.282,0.836,0.552,1.26,0.82
			c0.183,0.116,0.364,0.239,0.549,0.352c1.233,0.754,2.506,1.447,3.816,2.076c0.183,0.088,0.372,0.166,0.556,0.252
			c0.473,0.219,0.949,0.436,1.431,0.637c0.241,0.101,0.485,0.191,0.729,0.288c0.434,0.172,0.868,0.343,1.309,0.502
			c0.271,0.098,0.546,0.185,0.819,0.278c0.421,0.141,0.842,0.281,1.268,0.41c0.29,0.088,0.582,0.167,0.875,0.249
			c0.418,0.116,0.837,0.23,1.26,0.333c0.302,0.075,0.606,0.143,0.911,0.21c0.421,0.094,0.843,0.181,1.268,0.263
			c0.158,0.03,0.313,0.069,0.471,0.098v113.046c0,10.202-4.859,19.963-12.999,26.113L275.731,288.226z"/>
	</g>
</g>
<g>
</g>
<g>
</g>
<g>
</g>
<g>
</g>
<g>
</g>
<g>
</g>
<g>
</g>
<g>
</g>
<g>
</g>
<g>
</g>
<g>
</g>
<g>
</g>
<g>
</g>
<g>
</g>
<g>
</g>
</svg>
